Coordinates
version=1
nRows=4
nColumns=63
inDegrees=yes

Units are S.I. units (second, meters, Newtons, ...)
If the header above contains a line with 'inDegrees', this indicates whether rotational values are in degrees (yes) or radians (no).

endheader
time	pelvis_tilt	pelvis_list	pelvis_rotation	pelvis_tx	pelvis_ty	pelvis_tz	hip_flexion_r	hip_adduction_r	hip_rotation_r	knee_angle_r	knee_angle_r_beta	ankle_angle_r	subtalar_angle_r	mtp_angle_r	hip_flexion_l	hip_adduction_l	hip_rotation_l	knee_angle_l	knee_angle_l_beta	ankle_angle_l	subtalar_angle_l	mtp_angle_l	L5_S1_Flex_Ext	L5_S1_Lat_Bending	L5_S1_axial_rotation	L4_L5_Flex_Ext	L4_L5_Lat_Bending	L4_L5_axial_rotation	L3_L4_Flex_Ext	L3_L4_Lat_Bending	L3_L4_axial_rotation	L2_L3_Flex_Ext	L2_L3_Lat_Bending	L2_L3_axial_rotation	L1_L2_Flex_Ext	L1_L2_Lat_Bending	L1_L2_axial_rotation	L1_T12_Flex_Ext	L1_T12_Lat_Bending	L1_T12_axial_rotation	Abs_r3	Abs_r2	Abs_r1	Abs_t1	Abs_t2	neck_flexion	neck_bending	neck_rotation	arm_flex_r	arm_add_r	arm_rot_r	elbow_flex_r	pro_sup_r	wrist_flex_r	wrist_dev_r	arm_flex_l	arm_add_l	arm_rot_l	elbow_flex_l	pro_sup_l	wrist_flex_l	wrist_dev_l
      3.19607843	     -3.25956239	     -4.82900295	     64.56361306	      0.24082366	      0.39703128	      0.92504005	      2.67143877	     -0.06000102	     -3.45468693	      7.26944843	      0.12687581	     18.13578457	     16.05673826	      0.00000000	      2.64252864	     -1.66952643	    -22.17770044	     10.47284282	      0.18278559	     20.82200801	     11.88930363	      0.00000000	     -0.35098103	      0.68307559	      2.60353299	     -0.65180687	      0.90849053	      2.76625380	     -0.57662674	      1.66082999	      2.76625380	     -0.40113622	      1.66082999	      2.27809136	     -0.32592099	      1.39292774	      2.11537055	     -0.20055056	      1.05808409	      1.95264974	     -2.50702241	      7.72708769	     14.48006941	      0.00000000	      0.00000000	      0.68666779	     -3.71327996	     -0.12197626	     -7.65646556	    -25.55527457	     31.98665940	     88.94075514	     78.35452675	      7.34919412	     28.42247540	     17.61099991	      9.51429351	    196.41435547	      0.11152919	      1.75415961	    -68.99752497	    -24.30618909
      3.21568627	     -3.16803699	     -4.71192119	     64.51013627	      0.24032982	      0.39702457	      0.92517251	      2.56745722	     -0.08621490	     -3.60799370	      7.38644595	      0.12891780	     18.09256251	     16.24233205	      0.00000000	      2.52679746	     -1.60896723	    -21.62668727	     10.46573423	      0.18266152	     20.83345007	     11.01979168	      0.00000000	     -0.36217512	      0.68424630	      2.66435775	     -0.67259541	      0.91004758	      2.83088011	     -0.59501750	      1.66367646	      2.83088011	     -0.41392994	      1.66367646	      2.33131303	     -0.33631581	      1.39531506	      2.16479067	     -0.20694686	      1.05989752	      1.99826831	     -2.58698065	      7.74033102	     14.81835851	      0.00000000	      0.00000000	      1.39186259	     -4.01601390	     -0.71887099	     -7.54475606	    -25.76804090	     31.68267017	     89.14307640	     82.25288331	      9.75261227	     26.77106357	     17.50067920	      9.63186151	    197.12945316	      0.10834113	      1.77648464	    -69.18287826	    -24.32431233
      3.23529412	     -3.10316950	     -4.64870926	     64.23888059	      0.24047310	      0.39682352	      0.92542312	      2.53744754	     -0.07551714	     -3.28529142	      7.56190503	      0.13198014	     17.91318477	     15.97224363	      0.00000000	      2.43017322	     -1.66503752	    -22.15648343	     10.52327880	      0.18366586	     20.98413572	     11.23125958	      0.00000000	     -0.36605164	      0.68410569	      2.75417319	     -0.67979450	      0.90986056	      2.92630901	     -0.60138624	      1.66333456	      2.92630901	     -0.41836042	      1.66333456	      2.40990154	     -0.33991555	      1.39502831	      2.23776572	     -0.20916191	      1.05967971	      2.06562989	     -2.61467027	      7.73874034	     15.31788503	      0.00000000	      0.00000000	      1.96320384	     -4.28731078	     -1.07275614	     -7.61960493	    -26.01844944	     31.66216206	     89.29225760	     84.62561782	     10.21968036	     24.75693825	     17.23895846	      9.55569991	    197.58627920	      0.10647508	      1.80823370	    -69.28242246	    -24.33828286
      3.25490196	     -3.10692593	     -4.57328488	     64.14650914	      0.24054101	      0.39649254	      0.92541251	      2.51380665	     -0.15715688	     -3.43244698	      7.81061484	      0.13632095	     17.87684011	     15.99946586	      0.00000000	      2.36536452	     -1.65565291	    -22.46633381	     10.61703766	      0.18530226	     21.04575206	     11.34975645	      0.00000000	     -0.36860358	      0.68050707	      2.80694733	     -0.68453370	      0.90507440	      2.98238154	     -0.60557881	      1.65458489	      2.98238154	     -0.42127703	      1.65458489	      2.45607892	     -0.34228528	      1.38769002	      2.28064471	     -0.21062008	      1.05410545	      2.10521050	     -2.63289848	      7.69803207	     15.61139897	      0.00000000	      0.00000000	      2.52675739	     -4.86446147	     -1.35497094	     -7.91274570	    -26.18685870	     31.61349384	     89.41087557	     85.58226533	      9.53446752	     22.96168905	     16.88277950	      9.32971138	    197.95943067	      0.10617825	      1.83797148	    -69.33309597	    -24.34318941
